<svg xmlns="http://www.w3.org/2000/svg" version="1.1" xmlns:xlink="http://www.w3.org/1999/xlink" xmlns:svgjs="http://svgjs.com/svgjs" width="1440" height="560" preserveAspectRatio="none" viewBox="0 0 1440 560"><g mask="url(&quot;#SvgjsMask2681&quot;)" fill="none"><rect width="1440" height="560" x="0" y="0" fill="url(#SvgjsLinearGradient2682)"></rect><path d="M762 223L761 -179" stroke-width="8" stroke="url(#SvgjsLinearGradient2683)" stroke-linecap="round" class="Up"></path><path d="M1291 311L1290 12" stroke-width="10" stroke="url(#SvgjsLinearGradient2683)" stroke-linecap="round" class="Up"></path><path d="M1021 186L1020 -168" stroke-width="8" stroke="url(#SvgjsLinearGradient2684)" stroke-linecap="round" class="Down"></path><path d="M224 328L223 580" stroke-width="10" stroke="url(#SvgjsLinearGradient2684)" stroke-linecap="round" class="Down"></path><path d="M763 280L762 1" stroke-width="6" stroke="url(#SvgjsLinearGradient2683)" stroke-linecap="round" class="Up"></path><path d="M1325 328L1324 -67" stroke-width="6" stroke="url(#SvgjsLinearGradient2683)" stroke-linecap="round" class="Up"></path><path d="M697 142L696 358" stroke-width="8" stroke="url(#SvgjsLinearGradient2684)" stroke-linecap="round" class="Down"></path><path d="M414 537L413 826" stroke-width="6" stroke="url(#SvgjsLinearGradient2684)" stroke-linecap="round" class="Down"></path><path d="M568 9L567 170" stroke-width="6" stroke="url(#SvgjsLinearGradient2684)" stroke-linecap="round" class="Down"></path><path d="M950 158L949 378" stroke-width="8" stroke="url(#SvgjsLinearGradient2684)" stroke-linecap="round" class="Down"></path><path d="M1289 306L1288 154" stroke-width="8" stroke="url(#SvgjsLinearGradient2683)" stroke-linecap="round" class="Up"></path><path d="M658 259L657 481" stroke-width="8" stroke="url(#SvgjsLinearGradient2683)" stroke-linecap="round" class="Up"></path><path d="M1244 35L1243 -168" stroke-width="6" stroke="url(#SvgjsLinearGradient2684)" stroke-linecap="round" class="Down"></path><path d="M344 73L343 250" stroke-width="8" stroke="url(#SvgjsLinearGradient2684)" stroke-linecap="round" class="Down"></path><path d="M1168 88L1167 -94" stroke-width="8" stroke="url(#SvgjsLinearGradient2683)" stroke-linecap="round" class="Up"></path><path d="M875 131L874 -210" stroke-width="8" stroke="url(#SvgjsLinearGradient2684)" stroke-linecap="round" class="Down"></path><path d="M136 317L135 638" stroke-width="6" stroke="url(#SvgjsLinearGradient2684)" stroke-linecap="round" class="Down"></path><path d="M836 251L835 570" stroke-width="6" stroke="url(#SvgjsLinearGradient2683)" stroke-linecap="round" class="Up"></path><path d="M912 211L911 -165" stroke-width="10" stroke="url(#SvgjsLinearGradient2683)" stroke-linecap="round" class="Up"></path><path d="M1004 8L1003 -317" stroke-width="10" stroke="url(#SvgjsLinearGradient2684)" stroke-linecap="round" class="Down"></path><path d="M175 200L174 -76" stroke-width="10" stroke="url(#SvgjsLinearGradient2684)" stroke-linecap="round" class="Down"></path><path d="M1230 315L1229 567" stroke-width="10" stroke="url(#SvgjsLinearGradient2684)" stroke-linecap="round" class="Down"></path><path d="M378 90L377 -192" stroke-width="6" stroke="url(#SvgjsLinearGradient2684)" stroke-linecap="round" class="Down"></path><path d="M677 198L676 -186" stroke-width="8" stroke="url(#SvgjsLinearGradient2684)" stroke-linecap="round" class="Down"></path><path d="M1055 212L1054 593" stroke-width="10" stroke="url(#SvgjsLinearGradient2683)" stroke-linecap="round" class="Up"></path><path d="M362 174L361 480" stroke-width="8" stroke="url(#SvgjsLinearGradient2683)" stroke-linecap="round" class="Up"></path><path d="M296 140L295 -185" stroke-width="8" stroke="url(#SvgjsLinearGradient2684)" stroke-linecap="round" class="Down"></path><path d="M1103 380L1102 708" stroke-width="8" stroke="url(#SvgjsLinearGradient2683)" stroke-linecap="round" class="Up"></path><path d="M284 278L283 -121" stroke-width="10" stroke="url(#SvgjsLinearGradient2683)" stroke-linecap="round" class="Up"></path><path d="M1309 17L1308 326" stroke-width="8" stroke="url(#SvgjsLinearGradient2684)" stroke-linecap="round" class="Down"></path><path d="M125 496L124 176" stroke-width="6" stroke="url(#SvgjsLinearGradient2684)" stroke-linecap="round" class="Down"></path><path d="M991 515L990 897" stroke-width="8" stroke="url(#SvgjsLinearGradient2683)" stroke-linecap="round" class="Up"></path><path d="M751 311L750 -106" stroke-width="8" stroke="url(#SvgjsLinearGradient2683)" stroke-linecap="round" class="Up"></path><path d="M1304 535L1303 885" stroke-width="6" stroke="url(#SvgjsLinearGradient2684)" stroke-linecap="round" class="Down"></path><path d="M1298 555L1297 951" stroke-width="6" stroke="url(#SvgjsLinearGradient2683)" stroke-linecap="round" class="Up"></path><path d="M935 468L934 731" stroke-width="6" stroke="url(#SvgjsLinearGradient2684)" stroke-linecap="round" class="Down"></path></g><defs><mask id="SvgjsMask2681"><rect width="1440" height="560" fill="#ffffff"></rect></mask><linearGradient x1="15.28%" y1="-39.29%" x2="84.72%" y2="139.29%" gradientUnits="userSpaceOnUse" id="SvgjsLinearGradient2682"><stop stop-color="#0e2a47" offset="0"></stop><stop stop-color="rgba(0, 0, 0, 1)" offset="0"></stop></linearGradient><linearGradient x1="0%" y1="100%" x2="0%" y2="0%" id="SvgjsLinearGradient2683"><stop stop-color="rgba(255, 179, 0, 0)" offset="0"></stop><stop stop-color="rgba(255, 179, 0, 1)" offset="1"></stop></linearGradient><linearGradient x1="0%" y1="0%" x2="0%" y2="100%" id="SvgjsLinearGradient2684"><stop stop-color="rgba(255, 179, 0, 0)" offset="0"></stop><stop stop-color="rgba(255, 179, 0, 1)" offset="1"></stop></linearGradient></defs></svg>